<svg width="18" height="10" viewBox="0 0 18 10" fill="none" xmlns="http://www.w3.org/2000/svg">
<path d="M9.21365 6.37405L15.1678 0.419847C15.4477 0.139949 15.804 0 16.2365 0C16.6691 0 17.0254 0.139949 17.3053 0.419847C17.5851 0.699746 17.7251 1.05598 17.7251 1.48855C17.7251 1.92112 17.5851 2.27735 17.3053 2.55725L10.2824 9.58015C10.1297 9.73282 9.96428 9.84097 9.78617 9.90458C9.60805 9.96819 9.41721 10 9.21365 10C9.01009 10 8.81925 9.96819 8.64113 9.90458C8.46301 9.84097 8.29762 9.73282 8.14495 9.58015L1.12205 2.55725C0.842148 2.27735 0.702199 1.92112 0.702199 1.48855C0.702199 1.05598 0.842148 0.699746 1.12205 0.419847C1.40194 0.139949 1.75818 0 2.19075 0C2.62332 0 2.97955 0.139949 3.25945 0.419847L9.21365 6.37405Z" fill="white"/>
</svg>
