<svg width="15" height="17" viewBox="0 0 15 17" fill="none" xmlns="http://www.w3.org/2000/svg">
<path d="M1.5 14.9423H4.84625V9.90375C4.84625 9.64775 4.93283 9.43308 5.106 9.25975C5.27933 9.08658 5.494 9 5.75 9H9.25C9.506 9 9.72067 9.08658 9.894 9.25975C10.0672 9.43308 10.1538 9.64775 10.1538 9.90375V14.9423H13.5V6.096C13.5 6.04483 13.4888 5.99842 13.4663 5.95675C13.4439 5.91508 13.4135 5.87817 13.375 5.846L7.68275 1.56725C7.63142 1.52242 7.5705 1.5 7.5 1.5C7.4295 1.5 7.36858 1.52242 7.31725 1.56725L1.625 5.846C1.5865 5.87817 1.55608 5.91508 1.53375 5.95675C1.51125 5.99842 1.5 6.04483 1.5 6.096V14.9423ZM0 14.9423V6.096C0 5.80983 0.0639998 5.53875 0.192 5.28275C0.320166 5.02658 0.497167 4.81567 0.723 4.65L6.4155 0.361501C6.73133 0.120501 7.09233 0 7.4985 0C7.90467 0 8.26667 0.120501 8.5845 0.361501L14.277 4.65C14.5028 4.81567 14.6798 5.02658 14.808 5.28275C14.936 5.53875 15 5.80983 15 6.096V14.9423C15 15.3513 14.8523 15.7035 14.5568 15.999C14.2613 16.2945 13.909 16.4423 13.5 16.4423H9.55775C9.30158 16.4423 9.08692 16.3556 8.91375 16.1823C8.74042 16.0091 8.65375 15.7944 8.65375 15.5383V10.5H6.34625V15.5383C6.34625 15.7944 6.25958 16.0091 6.08625 16.1823C5.91308 16.3556 5.69842 16.4423 5.44225 16.4423H1.5C1.091 16.4423 0.73875 16.2945 0.44325 15.999C0.14775 15.7035 0 15.3513 0 14.9423Z" fill="#5F6368"/>
<path d="M1.5 14.9423H4.84625V9.90375C4.84625 9.64775 4.93283 9.43308 5.106 9.25975C5.27933 9.08658 5.494 9 5.75 9H9.25C9.506 9 9.72067 9.08658 9.894 9.25975C10.0672 9.43308 10.1538 9.64775 10.1538 9.90375V14.9423H13.5V6.096C13.5 6.04483 13.4888 5.99842 13.4663 5.95675C13.4439 5.91508 13.4135 5.87817 13.375 5.846L7.68275 1.56725C7.63142 1.52242 7.5705 1.5 7.5 1.5C7.4295 1.5 7.36858 1.52242 7.31725 1.56725L1.625 5.846C1.5865 5.87817 1.55608 5.91508 1.53375 5.95675C1.51125 5.99842 1.5 6.04483 1.5 6.096V14.9423Z" fill="#5F6368"/>
</svg>
